<svg xmlns="http://www.w3.org/2000/svg" xmlns:xlink="http://www.w3.org/1999/xlink" contentStyleType="text/css" height="428px" preserveAspectRatio="none" style="width:777px;height:428px;background:#FFFFFF;" version="1.1" viewBox="0 0 777 428" width="777px" zoomAndPan="magnify"><defs/><g><line style="stroke:#181818;stroke-width:0.5;stroke-dasharray:5.0,5.0;" x1="34" x2="34" y1="81.2969" y2="347.3594"/><line style="stroke:#181818;stroke-width:0.5;stroke-dasharray:5.0,5.0;" x1="182.8911" x2="182.8911" y1="81.2969" y2="347.3594"/><line style="stroke:#181818;stroke-width:0.5;stroke-dasharray:5.0,5.0;" x1="386.2983" x2="386.2983" y1="81.2969" y2="347.3594"/><line style="stroke:#181818;stroke-width:0.5;stroke-dasharray:5.0,5.0;" x1="572.314" x2="572.314" y1="81.2969" y2="347.3594"/><line style="stroke:#181818;stroke-width:0.5;stroke-dasharray:5.0,5.0;" x1="701.7554" x2="701.7554" y1="81.2969" y2="347.3594"/><text fill="#000000" font-family="sans-serif" font-size="14" lengthAdjust="spacing" textLength="53.2041" x="5" y="77.9951">Usuario</text><ellipse cx="34.6021" cy="13.5" fill="#E2E2F0" rx="8" ry="8" style="stroke:#181818;stroke-width:0.5;"/><path d="M34.6021,21.5 L34.6021,48.5 M21.6021,29.5 L47.6021,29.5 M34.6021,48.5 L21.6021,63.5 M34.6021,48.5 L47.6021,63.5 " fill="none" style="stroke:#181818;stroke-width:0.5;"/><text fill="#000000" font-family="sans-serif" font-size="14" lengthAdjust="spacing" textLength="53.2041" x="5" y="359.3545">Usuario</text><ellipse cx="34.6021" cy="371.1563" fill="#E2E2F0" rx="8" ry="8" style="stroke:#181818;stroke-width:0.5;"/><path d="M34.6021,379.1563 L34.6021,406.1563 M21.6021,387.1563 L47.6021,387.1563 M34.6021,406.1563 L21.6021,421.1563 M34.6021,406.1563 L47.6021,421.1563 " fill="none" style="stroke:#181818;stroke-width:0.5;"/><rect fill="#E2E2F0" height="30.2969" rx="2.5" ry="2.5" style="stroke:#181818;stroke-width:0.5;" width="36.1484" x="164.8911" y="50"/><text fill="#000000" font-family="sans-serif" font-size="14" lengthAdjust="spacing" textLength="22.1484" x="171.8911" y="69.9951">API</text><rect fill="#E2E2F0" height="30.2969" rx="2.5" ry="2.5" style="stroke:#181818;stroke-width:0.5;" width="36.1484" x="164.8911" y="346.3594"/><text fill="#000000" font-family="sans-serif" font-size="14" lengthAdjust="spacing" textLength="22.1484" x="171.8911" y="366.3545">API</text><rect fill="#E2E2F0" height="30.2969" rx="2.5" ry="2.5" style="stroke:#181818;stroke-width:0.5;" width="65.7412" x="354.2983" y="50"/><text fill="#000000" font-family="sans-serif" font-size="14" lengthAdjust="spacing" textLength="51.7412" x="361.2983" y="69.9951">Service</text><rect fill="#E2E2F0" height="30.2969" rx="2.5" ry="2.5" style="stroke:#181818;stroke-width:0.5;" width="65.7412" x="354.2983" y="346.3594"/><text fill="#000000" font-family="sans-serif" font-size="14" lengthAdjust="spacing" textLength="51.7412" x="361.2983" y="366.3545">Service</text><rect fill="#E2E2F0" height="30.2969" rx="2.5" ry="2.5" style="stroke:#181818;stroke-width:0.5;" width="89.0723" x="528.314" y="50"/><text fill="#000000" font-family="sans-serif" font-size="14" lengthAdjust="spacing" textLength="75.0723" x="535.314" y="69.9951">Repository</text><rect fill="#E2E2F0" height="30.2969" rx="2.5" ry="2.5" style="stroke:#181818;stroke-width:0.5;" width="89.0723" x="528.314" y="346.3594"/><text fill="#000000" font-family="sans-serif" font-size="14" lengthAdjust="spacing" textLength="75.0723" x="535.314" y="366.3545">Repository</text><rect fill="#E2E2F0" height="30.2969" rx="2.5" ry="2.5" style="stroke:#181818;stroke-width:0.5;" width="139.084" x="632.7554" y="50"/><text fill="#000000" font-family="sans-serif" font-size="14" lengthAdjust="spacing" textLength="125.084" x="639.7554" y="69.9951">Base de Datos H2</text><rect fill="#E2E2F0" height="30.2969" rx="2.5" ry="2.5" style="stroke:#181818;stroke-width:0.5;" width="139.084" x="632.7554" y="346.3594"/><text fill="#000000" font-family="sans-serif" font-size="14" lengthAdjust="spacing" textLength="125.084" x="639.7554" y="366.3545">Base de Datos H2</text><polygon fill="#181818" points="170.9653,108.4297,180.9653,112.4297,170.9653,116.4297,174.9653,112.4297" style="stroke:#181818;stroke-width:1.0;"/><line style="stroke:#181818;stroke-width:1.0;" x1="34.6021" x2="176.9653" y1="112.4297" y2="112.4297"/><text fill="#000000" font-family="sans-serif" font-size="13" lengthAdjust="spacing" textLength="117.4063" x="41.6021" y="107.3638">POST /api/register</text><polygon fill="#181818" points="375.1689,137.5625,385.1689,141.5625,375.1689,145.5625,379.1689,141.5625" style="stroke:#181818;stroke-width:1.0;"/><line style="stroke:#181818;stroke-width:1.0;" x1="182.9653" x2="381.1689" y1="141.5625" y2="141.5625"/><text fill="#000000" font-family="sans-serif" font-size="13" lengthAdjust="spacing" textLength="180.2036" x="189.9653" y="136.4966">Validar correo y contrase&#241;a</text><polygon fill="#181818" points="560.8501,166.6953,570.8501,170.6953,560.8501,174.6953,564.8501,170.6953" style="stroke:#181818;stroke-width:1.0;"/><line style="stroke:#181818;stroke-width:1.0;" x1="387.1689" x2="566.8501" y1="170.6953" y2="170.6953"/><text fill="#000000" font-family="sans-serif" font-size="13" lengthAdjust="spacing" textLength="158.1899" x="394.1689" y="165.6294">Verificar si correo existe</text><line style="stroke:#181818;stroke-width:1.0;" x1="387.1689" x2="429.1689" y1="199.8281" y2="199.8281"/><line style="stroke:#181818;stroke-width:1.0;" x1="429.1689" x2="429.1689" y1="199.8281" y2="212.8281"/><line style="stroke:#181818;stroke-width:1.0;" x1="388.1689" x2="429.1689" y1="212.8281" y2="212.8281"/><polygon fill="#181818" points="398.1689,208.8281,388.1689,212.8281,398.1689,216.8281,394.1689,212.8281" style="stroke:#181818;stroke-width:1.0;"/><text fill="#000000" font-family="sans-serif" font-size="13" lengthAdjust="spacing" textLength="122.6748" x="394.1689" y="194.7622">Generar token JWT</text><polygon fill="#181818" points="560.8501,237.9609,570.8501,241.9609,560.8501,245.9609,564.8501,241.9609" style="stroke:#181818;stroke-width:1.0;"/><line style="stroke:#181818;stroke-width:1.0;" x1="387.1689" x2="566.8501" y1="241.9609" y2="241.9609"/><text fill="#000000" font-family="sans-serif" font-size="13" lengthAdjust="spacing" textLength="161.6812" x="394.1689" y="236.895">Guardar usuario con JWT</text><polygon fill="#181818" points="690.2974,267.0938,700.2974,271.0938,690.2974,275.0938,694.2974,271.0938" style="stroke:#181818;stroke-width:1.0;"/><line style="stroke:#181818;stroke-width:1.0;" x1="572.8501" x2="696.2974" y1="271.0938" y2="271.0938"/><text fill="#000000" font-family="sans-serif" font-size="13" lengthAdjust="spacing" textLength="105.4473" x="579.8501" y="266.0278">Guardar usuario</text><polygon fill="#181818" points="193.9653,296.2266,183.9653,300.2266,193.9653,304.2266,189.9653,300.2266" style="stroke:#181818;stroke-width:1.0;"/><line style="stroke:#181818;stroke-width:1.0;stroke-dasharray:2.0,2.0;" x1="187.9653" x2="386.1689" y1="300.2266" y2="300.2266"/><text fill="#000000" font-family="sans-serif" font-size="13" lengthAdjust="spacing" textLength="165.4707" x="199.9653" y="295.1606">Retornar usuario con JWT</text><polygon fill="#181818" points="45.6021,325.3594,35.6021,329.3594,45.6021,333.3594,41.6021,329.3594" style="stroke:#181818;stroke-width:1.0;"/><line style="stroke:#181818;stroke-width:1.0;stroke-dasharray:2.0,2.0;" x1="39.6021" x2="181.9653" y1="329.3594" y2="329.3594"/><text fill="#000000" font-family="sans-serif" font-size="13" lengthAdjust="spacing" textLength="124.3633" x="51.6021" y="324.2935">Respuesta con JWT</text><!--SRC=[TP1B2i9038RtFKNeNWINBWGVu6EZsAhhKAC4oqn9fgB7yWnUp8nQ5TJL3EJxyYV18dY1TAKr2liKK65OChcG98yNMZteBwRGXSKyow6D5RU5zgo198a5gsSaHox8c3MMl4M1mekGXxDzN11KkbumQJ0pbbHvPOi-Huc4TroOfjoOT8e9dyexP4oEnEZW3-HWjid_TXxRLd6S-h5UdEREVq2cf0CR4BO48mnUOT99lzLtnEiUIx86xaVt-rKCUnumabhLf04Rv0O0]--></g></svg>